<svg xmlns="http://www.w3.org/2000/svg" xmlns:xlink="http://www.w3.org/1999/xlink" viewBox="0 0 100 24"><path d="M 14.677 0.584 L 14.677 10.613 L 1.981 10.613 L 1.981 0.584 L 0 0.584 L 0 23.325 L 1.981 23.325 L 1.981 12.6 L 14.677 12.6 L 14.677 23.325 L 16.659 23.325 L 16.659 0.584 Z" fill="rgb(235,237,242)"></path><path d="M 44.129 0.584 L 46.11 0.584 L 46.11 21.338 L 56.763 21.338 L 56.763 23.325 L 44.129 23.325 Z" fill="rgb(235,237,242)"></path><path d="M 70.193 0.226 C 63.721 0.226 58.476 5.486 58.476 11.976 C 58.476 18.463 63.721 23.723 70.193 23.723 C 76.661 23.723 81.91 18.463 81.91 11.976 C 81.91 5.486 76.661 0.226 70.193 0.226 Z M 70.193 21.736 C 64.816 21.736 60.457 17.365 60.457 11.976 C 60.457 6.584 64.816 2.213 70.193 2.213 C 75.57 2.213 79.925 6.584 79.925 11.976 C 79.925 17.365 75.57 21.736 70.193 21.736 Z" fill="rgb(235,237,242)"></path><path d="M 99.342 17.423 C 99.342 21.257 96.459 23.937 92.33 23.937 C 88.099 23.937 85.784 20.969 85.686 20.844 L 87.225 19.656 C 87.298 19.749 89.082 21.989 92.33 21.989 C 95.41 21.989 97.399 20.197 97.399 17.423 C 97.399 15.113 96.114 13.878 92.295 12.526 C 88.697 11.252 85.946 9.95 85.946 5.821 C 85.946 1.804 89.781 0 92.501 0 C 96.44 0 98.243 2.061 98.751 2.77 L 97.209 3.962 C 97.167 3.888 95.97 1.948 92.501 1.948 C 90.997 1.948 87.889 2.895 87.889 5.821 C 87.889 8.435 89.214 9.37 92.939 10.687 C 96.036 11.786 99.342 13.301 99.342 17.423 Z" fill="rgb(235,237,242)"></path><path d="M 39.875 23.325 L 37.874 23.325 L 29.611 0.584 L 31.612 0.584 Z" fill="rgb(235,237,242)"></path><path d="M 21.348 23.325 L 23.349 23.325 L 31.612 0.584 L 29.611 0.584 Z" fill="rgb(235,237,242)"></path></svg>